<svg id="Layer_1" data-name="Layer 1" xmlns="http://www.w3.org/2000/svg" xmlns:xlink="http://www.w3.org/1999/xlink" viewBox="0 0 612 612"><defs><style>.cls-1{fill:#8436e3;}.cls-2,.cls-3{fill:#fff;}.cls-2{stroke:#fff;stroke-miterlimit:10;stroke-width:4.06px;}.cls-4{clip-path:url(#clip-path);}</style><clipPath id="clip-path"><circle class="cls-1" cx="307.98" cy="315.56" r="52.99"/></clipPath></defs><rect x="5.88" y="5.88" width="600.24" height="600.24" rx="300.12"/><path class="cls-2" d="M307.35,132.31q-5.67,0-11.26.41a100.09,100.09,0,0,1,11.68,29.67H308c86.89,0,157.1,72.71,153,160.48-3.67,78.39-67.29,142-145.68,145.68-87.77,4.1-160.48-66.11-160.48-153a152.24,152.24,0,0,1,3.37-32,14.74,14.74,0,0,0-6.07-15.4l-.7-.48a14.68,14.68,0,0,0-22.59,9.25,184.21,184.21,0,0,0-3.75,50c5.6,92.57,80.9,167,173.52,171.67,111.62,5.6,203.1-89.33,191.67-202C480.82,203.38,401,132,307.35,132.31Z"/><path class="cls-3" d="M210.45,272.56a89.69,89.69,0,1,1,89.68-89.68A89.79,89.79,0,0,1,210.45,272.56Zm0-152.75a63.07,63.07,0,1,0,63.06,63.07A63.14,63.14,0,0,0,210.45,119.81Z"/><circle class="cls-3" cx="210.91" cy="181.41" r="18.37"/><circle class="cls-1" cx="307.98" cy="315.56" r="52.99"/><g class="cls-4"><rect class="cls-1" x="169.23" y="162.31" width="295.26" height="295.26"/></g></svg>