<svg id="Layer_1" data-name="Layer 1" xmlns="http://www.w3.org/2000/svg" xmlns:xlink="http://www.w3.org/1999/xlink" viewBox="0 0 612 612"><defs><style>.cls-1{fill:#8436e3;}.cls-2{clip-path:url(#clip-path);}</style><clipPath id="clip-path"><circle class="cls-1" cx="308.78" cy="333.36" r="74.12"/></clipPath></defs><path d="M307.89,77q-7.93,0-15.76.57a139.9,139.9,0,0,1,16.34,41.51h.31c121.53,0,219.75,101.71,214,224.49C517.66,453.25,428.67,542.24,319,547.37c-122.78,5.74-224.48-92.48-224.48-214a213.15,213.15,0,0,1,4.71-44.78A20.64,20.64,0,0,0,90.75,267l-1-.67C77.7,258.06,61.25,265,58.17,279.29a257.76,257.76,0,0,0-5.25,69.93c7.84,129.49,113.16,233.64,242.73,240.14,156.14,7.83,284.09-125,268.11-282.62C550.55,176.44,438.86,76.54,307.89,77Z"/><path d="M172.34,273.21A125.45,125.45,0,1,1,297.79,147.76,125.59,125.59,0,0,1,172.34,273.21Zm0-213.67a88.22,88.22,0,1,0,88.21,88.22A88.33,88.33,0,0,0,172.34,59.54Z"/><circle cx="172.98" cy="145.71" r="25.7"/><circle class="cls-1" cx="308.78" cy="333.36" r="74.12"/><g class="cls-2"><rect class="cls-1" x="114.69" y="118.99" width="413.01" height="413.01"/></g></svg>